<svg data-v-423bf9ae="" xmlns="http://www.w3.org/2000/svg" viewBox="0 0 552 90" class="iconLeftSlogan"><!----><!----><!----><g data-v-423bf9ae="" id="77268b87-0595-42a9-b707-b595403c87e2" fill="black" transform="matrix(6.08519290965367,0,0,6.08519290965367,91.0995055197032,-4.929006211723056)"><path d="M0.49 10.50L7.91 10.50L8.08 8.08L7.66 8.08C7.34 9.79 6.71 10.01 4.94 10.01C4.28 10.01 3.78 9.98 3.49 9.87C3.19 9.74 3.14 9.51 3.14 8.82L3.14 5.73L5.10 5.73C6.29 5.73 6.34 6.06 6.47 6.94L6.89 6.94L6.89 3.99L6.47 3.99C6.34 4.86 6.29 5.19 5.10 5.19L3.14 5.19L3.14 1.81C3.14 1.36 3.21 1.30 3.65 1.30L5.03 1.30C6.62 1.30 6.94 1.65 7.14 3.11L7.56 3.11L7.56 0.81L0.49 0.81L0.49 1.22C1.72 1.30 1.75 1.33 1.75 2.11L1.75 9.20C1.75 9.98 1.72 10.01 0.49 10.09ZM9.17 7.14C9.17 9.48 10.32 10.67 12.42 10.67C13.40 10.67 14.71 10.15 15.11 8.65L14.70 8.46C14.27 9.44 13.71 9.94 12.68 9.94C11.02 9.94 10.63 8.20 10.63 6.89C10.63 4.80 11.45 3.96 12.42 3.96C13.06 3.96 13.47 4.42 13.75 5.18C13.83 5.40 13.92 5.54 14.18 5.54C14.46 5.54 15.01 5.36 15.01 4.83C15.01 4.19 14.08 3.47 12.57 3.47C10.02 3.47 9.17 5.28 9.17 7.14ZM16.11 7.07C16.11 9.34 17.22 10.67 19.47 10.67C21.73 10.67 22.83 9.34 22.83 7.07C22.83 4.80 21.73 3.47 19.47 3.47C17.22 3.47 16.11 4.80 16.11 7.07ZM17.57 7.07C17.57 5.14 18.19 3.96 19.47 3.96C20.76 3.96 21.38 5.14 21.38 7.07C21.38 9.00 20.76 10.18 19.47 10.18C18.19 10.18 17.57 9.00 17.57 7.07ZM23.95 10.50L27.37 10.50L27.37 10.09C26.38 10.02 26.32 10.00 26.32 9.28L26.32 6.01C26.32 5.66 26.33 5.46 26.43 5.26C26.70 4.70 27.31 4.23 28.08 4.23C29.29 4.23 29.43 5.11 29.43 5.98L29.43 9.28C29.43 10.00 29.39 10.02 28.38 10.09L28.38 10.50L31.79 10.50L31.79 10.09C30.80 10.02 30.74 10.00 30.74 9.28L30.74 6.01C30.74 5.66 30.76 5.46 30.84 5.24C31.05 4.68 31.65 4.23 32.44 4.23C33.32 4.23 33.85 4.73 33.85 5.98L33.85 9.28C33.85 10.00 33.81 10.02 32.80 10.09L32.80 10.50L36.22 10.50L36.22 10.09C35.22 10.02 35.17 10.00 35.17 9.28L35.17 5.70C35.17 4.28 34.41 3.47 33.08 3.47C31.93 3.47 31.11 4.24 30.62 4.55C30.28 3.89 29.75 3.47 28.77 3.47C27.69 3.47 26.81 4.17 26.32 4.54L26.19 3.47L24.02 3.82L24.02 4.17L24.56 4.24C24.92 4.30 25.00 4.37 25.00 4.87L25.00 9.28C25.00 10.00 24.96 10.02 23.95 10.09ZM36.88 10.50L40.29 10.50L40.29 10.09C39.30 10.02 39.24 10.00 39.24 9.28L39.24 6.01C39.24 5.66 39.26 5.46 39.35 5.26C39.62 4.70 40.24 4.23 41.01 4.23C42.21 4.23 42.35 5.11 42.35 5.98L42.35 9.28C42.35 10.00 42.31 10.02 41.30 10.09L41.30 10.50L44.72 10.50L44.72 10.09C43.72 10.02 43.67 10.00 43.67 9.28L43.67 6.01C43.67 5.66 43.68 5.46 43.76 5.24C43.97 4.68 44.58 4.23 45.36 4.23C46.24 4.23 46.77 4.73 46.77 5.98L46.77 9.28C46.77 10.00 46.73 10.02 45.72 10.09L45.72 10.50L49.14 10.50L49.14 10.09C48.15 10.02 48.09 10.00 48.09 9.28L48.09 5.70C48.09 4.28 47.33 3.47 46.00 3.47C44.86 3.47 44.03 4.24 43.54 4.55C43.20 3.89 42.67 3.47 41.69 3.47C40.61 3.47 39.73 4.17 39.24 4.54L39.12 3.47L36.95 3.82L36.95 4.17L37.48 4.24C37.84 4.30 37.93 4.37 37.93 4.87L37.93 9.28C37.93 10.00 37.88 10.02 36.88 10.09ZM50.04 7.13C50.04 9.34 50.99 10.67 53.27 10.67C54.82 10.67 55.62 9.80 56.00 8.69L55.58 8.47C55.19 9.28 54.66 9.95 53.55 9.95C51.81 9.95 51.46 8.27 51.49 6.82L55.52 6.82C55.82 6.82 56.08 6.75 56.08 6.29C56.08 5.46 55.82 3.47 53.26 3.47C51.07 3.47 50.04 5.03 50.04 7.13ZM51.51 6.29C51.51 5.71 51.72 3.96 53.17 3.96C54.47 3.96 54.63 5.29 54.63 5.84C54.63 6.10 54.54 6.29 54.15 6.29ZM56.99 10.50L60.69 10.50L60.69 10.09C59.44 10.02 59.36 10.00 59.36 9.28L59.36 6.01C59.36 4.93 59.84 4.56 60.16 4.56C60.38 4.56 60.62 4.65 61.03 4.87C61.12 4.93 61.24 4.94 61.31 4.94C61.64 4.94 61.95 4.59 61.95 4.16C61.95 3.85 61.75 3.47 61.21 3.47C60.70 3.47 60.28 3.78 59.36 4.59L59.19 3.47L57.06 3.82L57.06 4.17L57.60 4.24C57.96 4.30 58.04 4.37 58.04 4.87L58.04 9.28C58.04 10.00 57.97 10.02 56.99 10.09ZM62.68 7.14C62.68 9.48 63.83 10.67 65.93 10.67C66.91 10.67 68.22 10.15 68.61 8.65L68.21 8.46C67.77 9.44 67.21 9.94 66.19 9.94C64.53 9.94 64.13 8.20 64.13 6.89C64.13 4.80 64.96 3.96 65.93 3.96C66.57 3.96 66.98 4.42 67.26 5.18C67.34 5.40 67.42 5.54 67.69 5.54C67.97 5.54 68.52 5.36 68.52 4.83C68.52 4.19 67.59 3.47 66.08 3.47C63.53 3.47 62.68 5.28 62.68 7.14ZM69.62 7.13C69.62 9.34 70.57 10.67 72.86 10.67C74.41 10.67 75.21 9.80 75.59 8.69L75.17 8.47C74.77 9.28 74.24 9.95 73.14 9.95C71.40 9.95 71.05 8.27 71.08 6.82L75.11 6.82C75.40 6.82 75.67 6.75 75.67 6.29C75.67 5.46 75.40 3.47 72.84 3.47C70.66 3.47 69.62 5.03 69.62 7.13ZM71.09 6.29C71.09 5.71 71.30 3.96 72.76 3.96C74.06 3.96 74.21 5.29 74.21 5.84C74.21 6.10 74.13 6.29 73.74 6.29Z"></path></g><!----><g data-v-423bf9ae="" id="4d112d4d-3261-4085-b123-700804dbc948" transform="matrix(2.8125,0,0,2.8125,-7.170000076293945,0)" stroke="none" fill="black"><path d="M2.83 18.247l26.34-9.124L2.83 0zM29.17 32V13.753L2.83 22.877z"></path></g><!----><g data-v-423bf9ae="" id="39852e0f-4592-4d99-a276-f6af77c0d176" fill="black" transform="matrix(1.3447031885388563,0,0,1.3447031885388563,93.9467817089012,56.10036051267172)"><path d="M0.10 3.51C0.10 3.75 0.21 3.77 0.38 3.77L0.88 3.77C0.97 3.77 3.11 10.99 3.14 11.07C3.49 12.14 3.60 12.99 3.91 12.99C4.13 12.99 4.23 12.67 4.51 12.26C4.66 12.05 4.76 12.01 4.90 11.66L6.89 6.45C6.96 6.29 6.99 6.20 7.01 6.20C7.04 6.20 7.07 6.29 7.11 6.45C7.71 8.51 8.39 11.03 8.40 11.07C8.75 12.14 8.86 12.99 9.17 12.99C9.39 12.99 9.49 12.67 9.77 12.26C9.93 12.05 10.02 12.01 10.16 11.66L13.26 4.06C13.36 3.81 13.36 3.77 13.72 3.77C13.96 3.77 14.01 3.71 14.01 3.53C14.01 3.32 13.97 3.26 13.78 3.26C13.64 3.26 13.33 3.30 12.82 3.30C12.08 3.30 11.58 3.26 11.38 3.26C11.20 3.26 11.10 3.28 11.10 3.51C11.10 3.75 11.21 3.77 11.38 3.77L12.29 3.77C12.36 3.77 12.38 3.81 12.38 3.95C12.38 4.63 10.78 8.72 10.07 10.63C9.93 10.99 9.86 11.17 9.81 11.17C9.76 11.17 9.70 10.99 9.58 10.60C9.49 10.30 8.57 7.18 8.04 5.22C7.99 5.05 7.78 4.17 7.78 3.85C7.78 3.81 7.78 3.79 7.80 3.77L8.68 3.77C8.86 3.77 8.96 3.75 8.96 3.56C8.96 3.32 8.92 3.26 8.72 3.26C8.40 3.26 7.46 3.30 7.04 3.30C6.62 3.30 5.71 3.26 5.49 3.26C5.31 3.26 5.21 3.28 5.21 3.51C5.21 3.75 5.32 3.77 5.49 3.77L6.29 3.77C6.33 3.77 6.51 4.27 6.66 4.83C6.72 5.05 6.76 5.15 6.76 5.25C6.76 5.31 6.76 5.38 6.72 5.49L4.72 10.60C4.62 10.82 4.59 10.95 4.55 10.95C4.51 10.95 4.48 10.84 4.40 10.60C4.31 10.32 3.30 7.27 2.70 5.22C2.66 5.08 2.34 3.96 2.32 3.85C2.34 3.77 2.38 3.77 2.42 3.77L3.12 3.77C3.35 3.77 3.42 3.75 3.42 3.56C3.42 3.32 3.37 3.26 3.18 3.26C2.86 3.26 2.14 3.30 1.72 3.30C1.30 3.30 0.60 3.26 0.38 3.26C0.20 3.26 0.10 3.28 0.10 3.51ZM21.63 12.39C21.63 12.63 21.63 12.68 21.83 12.68C22.15 12.68 23.09 12.64 23.51 12.64C23.93 12.64 24.75 12.68 25.07 12.68C25.24 12.68 25.24 12.61 25.24 12.40C25.24 12.24 25.24 12.18 25.07 12.18L24.15 12.18C24.07 12.18 24.02 9.93 24.02 8.20C24.02 8.01 24.02 8.01 24.15 8.01L29.39 8.01C29.46 8.01 29.47 8.01 29.47 8.18L29.47 9.91C29.47 11.05 29.46 12.18 29.40 12.18L28.63 12.18C28.41 12.18 28.36 12.19 28.36 12.39C28.36 12.63 28.38 12.68 28.57 12.68C28.90 12.68 29.74 12.64 30.16 12.64C30.58 12.64 31.16 12.68 31.49 12.68C31.65 12.68 31.67 12.61 31.67 12.40C31.67 12.24 31.65 12.18 31.49 12.18L30.74 12.18C30.70 12.18 30.69 9.27 30.69 7.04C30.69 5.40 30.69 3.70 30.73 3.70L31.35 3.70C31.57 3.70 31.61 3.68 31.61 3.49C31.61 3.25 31.60 3.19 31.40 3.19C31.26 3.19 30.63 3.23 30.04 3.23C29.37 3.23 28.77 3.19 28.55 3.19C28.35 3.19 28.32 3.22 28.32 3.44C28.32 3.67 28.39 3.70 28.56 3.70L29.36 3.70C29.41 3.70 29.47 4.79 29.47 5.71L29.47 7.42C29.47 7.59 29.47 7.59 29.30 7.59L24.19 7.59C24.02 7.59 24.02 7.59 24.02 7.38C24.02 6.96 24.01 6.23 24.01 5.53C24.01 4.66 24.02 3.70 24.08 3.70L24.85 3.70C25.07 3.70 25.12 3.68 25.12 3.49C25.12 3.25 25.10 3.19 24.91 3.19C24.58 3.19 24.00 3.23 23.39 3.23C22.81 3.23 22.32 3.19 22.09 3.19C21.91 3.19 21.81 3.21 21.81 3.44C21.81 3.68 21.92 3.70 22.09 3.70L22.71 3.70C22.76 3.70 22.78 5.59 22.78 7.18L22.78 8.61C22.78 10.08 22.76 12.18 22.69 12.18L21.88 12.18C21.66 12.18 21.63 12.19 21.63 12.39ZM39.70 12.39C39.70 12.63 39.73 12.68 39.93 12.68C40.25 12.68 41.22 12.64 41.64 12.64C42.06 12.64 46.56 12.68 46.89 12.68C47.01 12.68 47.17 12.66 47.17 12.49C47.17 12.07 47.21 11.23 47.21 10.53C47.21 10.39 47.05 10.39 46.93 10.39C46.82 10.39 46.69 10.39 46.69 10.51C46.68 11.06 46.68 11.41 46.65 11.76C46.62 12.01 46.62 12.04 46.52 12.04C46.37 12.04 43.74 12.08 42.24 12.08C42.17 12.08 42.13 10.11 42.08 8.26C42.08 8.06 42.13 8.09 42.27 8.09L44.55 8.09C45.25 8.09 45.28 8.20 45.28 8.30L45.28 9.00C45.28 9.14 45.46 9.14 45.57 9.14C45.67 9.14 45.79 9.13 45.79 9.02C45.79 8.83 45.77 8.33 45.77 7.83C45.77 7.32 45.79 6.83 45.79 6.71C45.79 6.59 45.65 6.58 45.56 6.58C45.44 6.58 45.28 6.59 45.28 6.72L45.28 7.45C45.28 7.62 44.83 7.63 44.55 7.63L42.21 7.63C42.10 7.63 42.08 7.63 42.08 7.45C42.07 6.75 42.06 6.06 42.06 5.46C42.06 5.12 42.06 3.71 42.14 3.71C43.37 3.71 45.88 3.75 45.88 3.81C45.88 3.99 45.84 4.83 45.84 4.89C45.84 5.04 45.91 5.10 46.09 5.10C46.28 5.10 46.35 5.08 46.35 4.94C46.35 3.85 46.41 3.36 46.41 3.09C46.41 2.91 46.33 2.90 46.13 2.90C45.93 2.90 45.93 2.95 45.91 3.11C45.89 3.25 45.96 3.25 45.05 3.25C44.44 3.25 42.29 3.29 41.52 3.29C41.03 3.29 40.10 3.25 40.00 3.25C39.87 3.25 39.82 3.30 39.82 3.49C39.82 3.72 39.89 3.74 40.05 3.74L40.71 3.74C40.77 3.74 40.84 4.79 40.84 5.71C40.84 5.80 40.89 8.27 40.89 9.83L40.89 11.17C40.89 11.84 40.87 12.18 40.84 12.18L39.98 12.18C39.76 12.18 39.70 12.21 39.70 12.39ZM55.17 3.51C55.17 3.72 55.24 3.79 55.44 3.79L56.25 3.77C56.35 3.77 56.39 6.61 56.39 8.55L56.39 10.42C56.39 11.30 56.38 12.18 56.34 12.18L55.73 12.18C55.51 12.18 55.44 12.19 55.44 12.39C55.44 12.63 55.48 12.68 55.68 12.68C55.80 12.68 56.63 12.64 57.05 12.64C57.47 12.64 58.24 12.68 58.56 12.68C58.73 12.68 58.76 12.61 58.76 12.40C58.76 12.24 58.73 12.18 58.56 12.18L57.75 12.18C57.68 12.18 57.60 9.18 57.60 8.37C57.60 8.30 57.60 8.26 57.71 8.26C58.10 8.26 58.70 8.27 59.00 8.27C61.24 8.32 61.38 10.00 61.38 11.68L61.38 12.49C61.38 12.61 61.43 12.64 61.53 12.64C61.53 12.64 62.97 12.68 63.45 12.68C63.62 12.68 63.67 12.64 63.67 12.53C63.67 12.24 63.62 12.18 63.46 12.18L62.82 12.18C62.72 12.18 62.69 12.14 62.66 11.31C62.58 8.99 61.21 8.34 60.30 8.05C60.16 8.01 60.19 8.01 60.30 7.95C60.89 7.69 62.20 6.94 62.20 5.63C62.20 3.63 60.51 3.21 59.11 3.21C58.79 3.21 57.50 3.29 57.08 3.29C56.66 3.29 55.68 3.26 55.45 3.26C55.27 3.26 55.17 3.28 55.17 3.51ZM57.60 7.80L57.60 4.40C57.60 4.05 57.62 3.68 57.67 3.68C57.88 3.65 58.16 3.65 58.38 3.65C59.68 3.65 60.93 4.47 60.93 5.82C60.93 6.99 60.38 7.57 59.72 7.88C59.68 7.90 59.64 7.90 59.57 7.90C59.09 7.88 58.38 7.88 57.78 7.87C57.61 7.87 57.60 7.85 57.60 7.80ZM71.15 12.39C71.15 12.63 71.18 12.68 71.37 12.68C71.69 12.68 72.66 12.64 73.08 12.64C73.50 12.64 78.01 12.68 78.33 12.68C78.46 12.68 78.61 12.66 78.61 12.49C78.61 12.07 78.65 11.23 78.65 10.53C78.65 10.39 78.50 10.39 78.37 10.39C78.26 10.39 78.13 10.39 78.13 10.51C78.12 11.06 78.12 11.41 78.09 11.76C78.06 12.01 78.06 12.04 77.97 12.04C77.81 12.04 75.18 12.08 73.68 12.08C73.61 12.08 73.57 10.11 73.53 8.26C73.53 8.06 73.57 8.09 73.71 8.09L75.99 8.09C76.69 8.09 76.72 8.20 76.72 8.30L76.72 9.00C76.72 9.14 76.90 9.14 77.01 9.14C77.11 9.14 77.24 9.13 77.24 9.02C77.24 8.83 77.21 8.33 77.21 7.83C77.21 7.32 77.24 6.83 77.24 6.71C77.24 6.59 77.10 6.58 77 6.58C76.89 6.58 76.72 6.59 76.72 6.72L76.72 7.45C76.72 7.62 76.27 7.63 75.99 7.63L73.65 7.63C73.54 7.63 73.53 7.63 73.53 7.45C73.51 6.75 73.50 6.06 73.50 5.46C73.50 5.12 73.50 3.71 73.58 3.71C74.82 3.71 77.32 3.75 77.32 3.81C77.32 3.99 77.28 4.83 77.28 4.89C77.28 5.04 77.35 5.10 77.53 5.10C77.73 5.10 77.80 5.08 77.80 4.94C77.80 3.85 77.85 3.36 77.85 3.09C77.85 2.91 77.77 2.90 77.57 2.90C77.38 2.90 77.38 2.95 77.35 3.11C77.34 3.25 77.41 3.25 76.50 3.25C75.88 3.25 73.74 3.29 72.97 3.29C72.48 3.29 71.54 3.25 71.44 3.25C71.32 3.25 71.26 3.30 71.26 3.49C71.26 3.72 71.33 3.74 71.50 3.74L72.16 3.74C72.21 3.74 72.28 4.79 72.28 5.71C72.28 5.80 72.34 8.27 72.34 9.83L72.34 11.17C72.34 11.84 72.31 12.18 72.28 12.18L71.43 12.18C71.20 12.18 71.15 12.21 71.15 12.39ZM96.15 5.01C96.15 5.17 96.33 5.17 96.46 5.17C96.61 5.17 96.66 5.15 96.67 4.97L96.78 3.89C96.80 3.81 97.34 3.75 98.10 3.75L100.09 3.75C100.14 3.75 100.17 4.35 100.17 4.97C100.17 6.43 100.11 12.18 99.99 12.18L99.12 12.18C98.90 12.18 98.85 12.19 98.85 12.39C98.85 12.63 98.87 12.68 99.06 12.68C99.39 12.68 100.37 12.64 100.79 12.64C101.21 12.64 102.14 12.68 102.47 12.68C102.63 12.68 102.66 12.61 102.66 12.40C102.66 12.24 102.63 12.18 102.47 12.18L101.47 12.18C101.44 12.18 101.44 11.76 101.44 11.31C101.44 9.56 101.53 5.96 101.53 5.92C101.54 5.18 101.54 3.75 101.64 3.75L103.25 3.75C103.96 3.75 104.79 3.78 104.79 3.85C104.79 3.99 104.75 4.90 104.75 4.97C104.75 5.12 104.82 5.17 105.00 5.17C105.20 5.17 105.27 5.17 105.27 5.03C105.27 3.93 105.32 3.40 105.32 3.14C105.32 2.94 105.24 2.94 105.04 2.94C104.89 2.94 104.83 2.98 104.82 3.16C104.82 3.23 104.17 3.28 103.33 3.28L98.34 3.28C97.68 3.28 96.87 3.28 96.87 3.21L96.87 3.07C96.87 2.94 96.74 2.94 96.64 2.94C96.42 2.94 96.39 3.00 96.38 3.19C96.32 3.89 96.15 4.97 96.15 5.01ZM113.08 3.51C113.08 3.72 113.15 3.79 113.34 3.79L114.16 3.77C114.25 3.77 114.30 6.61 114.30 8.55L114.30 10.42C114.30 11.30 114.28 12.18 114.24 12.18L113.64 12.18C113.41 12.18 113.34 12.19 113.34 12.39C113.34 12.63 113.39 12.68 113.58 12.68C113.71 12.68 114.53 12.64 114.95 12.64C115.37 12.64 116.14 12.68 116.47 12.68C116.63 12.68 116.66 12.61 116.66 12.40C116.66 12.24 116.63 12.18 116.47 12.18L115.65 12.18C115.58 12.18 115.50 9.18 115.50 8.37C115.50 8.30 115.50 8.26 115.61 8.26C116.00 8.26 116.61 8.27 116.90 8.27C119.14 8.32 119.28 10.00 119.28 11.68L119.28 12.49C119.28 12.61 119.34 12.64 119.43 12.64C119.43 12.64 120.88 12.68 121.35 12.68C121.52 12.68 121.58 12.64 121.58 12.53C121.58 12.24 121.52 12.18 121.37 12.18L120.72 12.18C120.62 12.18 120.60 12.14 120.57 11.31C120.48 8.99 119.11 8.34 118.20 8.05C118.06 8.01 118.09 8.01 118.20 7.95C118.79 7.69 120.11 6.94 120.11 5.63C120.11 3.63 118.41 3.21 117.01 3.21C116.69 3.21 115.40 3.29 114.98 3.29C114.56 3.29 113.58 3.26 113.36 3.26C113.18 3.26 113.08 3.28 113.08 3.51ZM115.50 7.80L115.50 4.40C115.50 4.05 115.53 3.68 115.57 3.68C115.78 3.65 116.06 3.65 116.28 3.65C117.59 3.65 118.83 4.47 118.83 5.82C118.83 6.99 118.29 7.57 117.63 7.88C117.59 7.90 117.54 7.90 117.47 7.90C117.00 7.88 116.28 7.88 115.68 7.87C115.51 7.87 115.50 7.85 115.50 7.80ZM129.05 3.51C129.05 3.75 129.14 3.77 129.30 3.77L129.84 3.77C129.89 3.77 129.89 4.12 129.89 4.55C129.89 5.66 129.88 8.96 129.88 9.42C129.88 11.13 130.13 12.80 132.99 12.80C134.06 12.80 135.23 12.38 135.88 12.00C136.14 11.86 136.43 11.72 136.51 11.72C136.78 11.72 137.05 12.74 137.38 12.74C137.70 12.74 137.72 12.35 137.72 12.25C137.72 11.96 137.77 10.08 137.82 8.16C137.87 6.12 137.86 3.77 137.97 3.77L138.29 3.77C138.52 3.77 138.59 3.75 138.59 3.56C138.59 3.32 138.54 3.26 138.35 3.26C138.21 3.26 137.68 3.30 137.26 3.30C136.84 3.30 136.04 3.26 135.81 3.26C135.63 3.26 135.53 3.28 135.53 3.51C135.53 3.75 135.65 3.77 135.81 3.77L136.51 3.77C136.58 3.77 136.60 4.30 136.60 4.87L136.60 9.14C136.60 11.19 136.60 11.12 136.26 11.34C135.87 11.61 135.06 12.08 133.88 12.08C131.91 12.08 131.11 11.17 131.11 9.41C131.11 8.82 131.18 3.77 131.29 3.77L132.20 3.77C132.43 3.77 132.47 3.75 132.47 3.56C132.47 3.32 132.45 3.26 132.26 3.26C131.94 3.26 131.05 3.30 130.63 3.30C130.21 3.30 129.53 3.26 129.30 3.26C129.12 3.26 129.05 3.28 129.05 3.51ZM146.83 5.77C146.83 9.07 151.82 8.20 151.82 10.65C151.82 11.59 150.98 12.31 150.00 12.31C149.17 12.31 147.57 11.83 147.55 11.47L147.46 10.15C147.45 9.97 147.38 9.91 147.20 9.91L147.13 9.91C146.92 9.91 146.92 10.00 146.92 10.12C146.92 10.32 147.03 11.66 147.06 12.17C147.07 12.38 148.33 12.85 149.87 12.85C151.44 12.85 153.05 11.87 153.05 10.11C153.05 6.79 148.08 7.87 148.08 5.32C148.08 4.31 148.86 3.56 149.90 3.56C150.92 3.56 152.01 4.58 152.01 4.89C152.01 5.01 151.97 5.73 151.97 5.78C151.97 5.92 152.01 5.99 152.28 5.99C152.52 5.99 152.53 5.94 152.53 5.75C152.53 5.04 152.61 3.68 152.61 3.53C152.61 3.30 152.57 3.29 152.31 3.29C152.08 3.29 152.07 3.32 152.05 3.53C152.05 3.61 152.04 3.78 152.00 3.78C151.94 3.78 151.86 3.74 151.79 3.68C150.99 3.14 150.37 3.08 149.87 3.08C148.34 3.08 146.83 4.17 146.83 5.77ZM160.61 5.01C160.61 5.17 160.79 5.17 160.92 5.17C161.07 5.17 161.11 5.15 161.13 4.97L161.24 3.89C161.25 3.81 161.80 3.75 162.55 3.75L164.54 3.75C164.60 3.75 164.63 4.35 164.63 4.97C164.63 6.43 164.57 12.18 164.44 12.18L163.58 12.18C163.35 12.18 163.31 12.19 163.31 12.39C163.31 12.63 163.32 12.68 163.52 12.68C163.84 12.68 164.82 12.64 165.24 12.64C165.66 12.64 166.60 12.68 166.92 12.68C167.09 12.68 167.12 12.61 167.12 12.40C167.12 12.24 167.09 12.18 166.92 12.18L165.93 12.18C165.90 12.18 165.90 11.76 165.90 11.31C165.90 9.56 165.98 5.96 165.98 5.92C166.00 5.18 166.00 3.75 166.10 3.75L167.71 3.75C168.42 3.75 169.25 3.78 169.25 3.85C169.25 3.99 169.20 4.90 169.20 4.97C169.20 5.12 169.27 5.17 169.46 5.17C169.65 5.17 169.72 5.17 169.72 5.03C169.72 3.93 169.78 3.40 169.78 3.14C169.78 2.94 169.69 2.94 169.50 2.94C169.34 2.94 169.29 2.98 169.27 3.16C169.27 3.23 168.63 3.28 167.79 3.28L162.79 3.28C162.13 3.28 161.32 3.28 161.32 3.21L161.32 3.07C161.32 2.94 161.20 2.94 161.10 2.94C160.87 2.94 160.85 3.00 160.83 3.19C160.78 3.89 160.61 4.97 160.61 5.01ZM187.33 3.51C187.33 3.75 187.42 3.79 187.59 3.79L188.44 3.77C188.50 3.77 188.55 5.52 188.55 7.11L188.55 11.63C188.55 11.93 188.54 12.18 188.51 12.18L187.78 12.18C187.56 12.18 187.49 12.19 187.49 12.39C187.49 12.63 187.52 12.68 187.71 12.68C187.84 12.68 188.79 12.64 189.21 12.64C189.39 12.64 189.91 12.67 190.55 12.67C192.11 12.67 194.52 12.43 194.52 10.23C194.52 8.27 192.70 7.94 192.01 7.84C191.93 7.83 191.91 7.83 191.91 7.81C191.91 7.80 191.95 7.78 192.02 7.76C192.67 7.52 194.11 6.90 194.11 5.54C194.11 3.81 192.64 3.25 190.96 3.25C190.39 3.25 189.78 3.29 189.24 3.29C188.82 3.29 187.81 3.26 187.59 3.26C187.40 3.26 187.33 3.28 187.33 3.51ZM189.78 8.19C189.78 8.12 189.78 8.08 189.90 8.08L190.37 8.08C190.99 8.08 191.63 8.09 192.01 8.22C192.88 8.51 193.20 9.16 193.20 10.14C193.20 11.17 192.74 12.18 190.72 12.18L189.88 12.18C189.80 12.18 189.78 9.02 189.78 8.19ZM189.78 7.59L189.78 6.92C189.78 5.87 189.80 3.71 189.84 3.68C189.90 3.65 190.20 3.63 190.41 3.63C191.83 3.63 192.85 4.41 192.85 5.77C192.85 6.92 192.12 7.46 191.49 7.66C191.41 7.69 191.31 7.70 191.23 7.70C191.14 7.70 191.00 7.69 190.76 7.69L189.97 7.69C189.78 7.69 189.78 7.67 189.78 7.59ZM202.62 12.39C202.62 12.63 202.65 12.68 202.85 12.68C203.17 12.68 204.13 12.64 204.55 12.64C204.97 12.64 209.48 12.68 209.80 12.68C209.93 12.68 210.08 12.66 210.08 12.49C210.08 12.07 210.13 11.23 210.13 10.53C210.13 10.39 209.97 10.39 209.85 10.39C209.73 10.39 209.61 10.39 209.61 10.51C209.59 11.06 209.59 11.41 209.57 11.76C209.54 12.01 209.54 12.04 209.44 12.04C209.29 12.04 206.65 12.08 205.16 12.08C205.09 12.08 205.04 10.11 205.00 8.26C205.00 8.06 205.04 8.09 205.18 8.09L207.47 8.09C208.17 8.09 208.19 8.20 208.19 8.30L208.19 9.00C208.19 9.14 208.38 9.14 208.49 9.14C208.59 9.14 208.71 9.13 208.71 9.02C208.71 8.83 208.68 8.33 208.68 7.83C208.68 7.32 208.71 6.83 208.71 6.71C208.71 6.59 208.57 6.58 208.47 6.58C208.36 6.58 208.19 6.59 208.19 6.72L208.19 7.45C208.19 7.62 207.75 7.63 207.47 7.63L205.13 7.63C205.02 7.63 205.00 7.63 205.00 7.45C204.99 6.75 204.97 6.06 204.97 5.46C204.97 5.12 204.97 3.71 205.06 3.71C206.29 3.71 208.80 3.75 208.80 3.81C208.80 3.99 208.75 4.83 208.75 4.89C208.75 5.04 208.82 5.10 209.01 5.10C209.20 5.10 209.27 5.08 209.27 4.94C209.27 3.85 209.33 3.36 209.33 3.09C209.33 2.91 209.24 2.90 209.05 2.90C208.85 2.90 208.85 2.95 208.82 3.11C208.81 3.25 208.88 3.25 207.97 3.25C207.35 3.25 205.21 3.29 204.44 3.29C203.95 3.29 203.01 3.25 202.92 3.25C202.79 3.25 202.73 3.30 202.73 3.49C202.73 3.72 202.80 3.74 202.97 3.74L203.63 3.74C203.69 3.74 203.76 4.79 203.76 5.71C203.76 5.80 203.81 8.27 203.81 9.83L203.81 11.17C203.81 11.84 203.78 12.18 203.76 12.18L202.90 12.18C202.68 12.18 202.62 12.21 202.62 12.39ZM218.16 7.91C218.16 11.40 220.53 12.89 223.12 12.89C225.01 12.89 227.01 11.89 227.01 11.58C227.01 11.12 227.02 10.68 227.02 10.33C227.02 9.81 227.04 9.56 227.16 9.56L227.60 9.56C227.74 9.56 227.75 9.39 227.75 9.30C227.75 9.18 227.74 9.06 227.60 9.06C227.37 9.06 227.01 9.10 226.34 9.10C225.89 9.10 225.15 9.07 224.46 9.06C224.32 9.06 224.32 9.24 224.32 9.35C224.32 9.45 224.35 9.56 224.48 9.56L225.69 9.56C225.74 9.56 225.79 9.87 225.79 10.33C225.79 10.82 225.78 11.41 225.75 11.65C225.74 11.76 225.09 12.39 223.51 12.39C221.27 12.39 219.67 10.29 219.67 7.94C219.67 5.42 221.23 3.54 223.23 3.54C225.12 3.54 226.30 4.87 226.30 5.03C226.30 5.15 226.24 6.12 226.24 6.17C226.24 6.31 226.28 6.36 226.55 6.36C226.74 6.36 226.81 6.33 226.81 6.15C226.81 5.43 226.86 3.75 226.86 3.56C226.86 3.36 226.76 3.33 226.55 3.33C226.32 3.33 226.30 3.39 226.30 3.56L226.30 3.91C226.30 3.99 226.25 4.02 226.13 3.92C225.85 3.72 224.85 3.08 223.29 3.08C220.44 3.08 218.16 4.79 218.16 7.91ZM235.65 12.39C235.65 12.63 235.69 12.68 235.89 12.68C236.21 12.68 236.96 12.64 237.68 12.64C238.34 12.64 239.13 12.68 239.36 12.68C239.53 12.68 239.55 12.61 239.55 12.40C239.55 12.24 239.53 12.18 239.36 12.18L238.39 12.18C238.29 12.18 238.27 9.55 238.27 7.76L238.27 5.87C238.27 5.14 238.29 3.70 238.39 3.70L239.30 3.70C239.53 3.70 239.55 3.68 239.55 3.49C239.55 3.25 239.53 3.19 239.36 3.19C239.04 3.19 238.36 3.23 237.71 3.23C236.89 3.23 236.18 3.19 235.96 3.19C235.77 3.19 235.70 3.21 235.70 3.44C235.70 3.68 235.79 3.70 235.96 3.70L236.88 3.70C236.92 3.70 236.99 4.79 236.99 5.71L236.99 7.08C236.99 8.92 236.98 12.18 236.87 12.18L235.94 12.18C235.72 12.18 235.65 12.19 235.65 12.39ZM247.45 12.39C247.45 12.63 247.46 12.68 247.66 12.68C247.84 12.68 248.22 12.64 248.84 12.64C249.47 12.64 250.03 12.68 250.35 12.68C250.52 12.68 250.52 12.61 250.52 12.40C250.52 12.24 250.52 12.18 250.35 12.18L249.14 12.18C249.10 12.18 249.09 11.54 249.09 10.79C249.09 9.46 249.10 7.48 249.10 5.99C249.10 5.25 249.10 4.84 249.12 4.28C249.12 4.02 249.19 4.14 249.31 4.28L256.20 12.66C256.28 12.75 256.37 12.89 256.48 12.89C256.59 12.89 256.66 12.77 256.66 12.54C256.66 12.39 256.83 6.65 256.84 4.48C256.84 4.06 256.87 3.70 256.90 3.70L257.53 3.70C257.75 3.70 257.81 3.68 257.81 3.49C257.81 3.25 257.81 3.19 257.61 3.19C257.42 3.19 256.98 3.23 256.42 3.23C255.81 3.23 255.01 3.19 254.91 3.19C254.74 3.19 254.74 3.26 254.74 3.47C254.74 3.64 254.74 3.70 254.91 3.70L256.21 3.70C256.23 3.70 256.23 4.33 256.23 4.44C256.23 5.85 256.26 8.33 256.26 9.70L256.26 10.29C256.26 10.57 256.24 10.65 256.02 10.37L250.33 3.39C250.22 3.25 250.19 3.19 250.03 3.19C249.94 3.19 249.56 3.23 249.26 3.23C248.96 3.23 247.88 3.19 247.69 3.19C247.52 3.19 247.49 3.26 247.49 3.47C247.49 3.64 247.52 3.70 247.69 3.70L248.60 3.70C248.60 4.17 248.56 8.53 248.49 10.79C248.46 11.69 248.47 12.18 248.36 12.18L247.72 12.18C247.49 12.18 247.45 12.19 247.45 12.39ZM266.06 5.77C266.06 9.07 271.04 8.20 271.04 10.65C271.04 11.59 270.20 12.31 269.22 12.31C268.39 12.31 266.80 11.83 266.77 11.47L266.69 10.15C266.67 9.97 266.60 9.91 266.42 9.91L266.35 9.91C266.14 9.91 266.14 10.00 266.14 10.12C266.14 10.32 266.25 11.66 266.28 12.17C266.29 12.38 267.55 12.85 269.09 12.85C270.66 12.85 272.27 11.87 272.27 10.11C272.27 6.79 267.30 7.87 267.30 5.32C267.30 4.31 268.09 3.56 269.12 3.56C270.14 3.56 271.24 4.58 271.24 4.89C271.24 5.01 271.19 5.73 271.19 5.78C271.19 5.92 271.24 5.99 271.50 5.99C271.74 5.99 271.75 5.94 271.75 5.75C271.75 5.04 271.84 3.68 271.84 3.53C271.84 3.30 271.80 3.29 271.53 3.29C271.31 3.29 271.29 3.32 271.28 3.53C271.28 3.61 271.26 3.78 271.22 3.78C271.17 3.78 271.08 3.74 271.01 3.68C270.21 3.14 269.60 3.08 269.09 3.08C267.57 3.08 266.06 4.17 266.06 5.77Z"></path></g></svg>